simulation
nRows=62
nColumns=15
endheader
time  TH_x TH_y TH_z SC_y  SC_z  SC_x  AC_y  AC_z  AC_x  GH_y  GH_z  GH_yy  EL_x  PS_y
0.000000  0.000000  0.000000  0.000000  -32.660938  3.258667  16.139090  63.394994  9.762609  -4.706919  44.457780  51.370664  -55.011230  24.456579  0.000000
0.023000  0.000000  0.000000  0.000000  -32.390907  3.531548  16.773629  63.920702  10.249969  -4.221578  44.655075  51.872352  -55.035958  24.816366  0.000000
0.046000  0.000000  0.000000  0.000000  -32.433852  3.761058  17.119244  64.383321  10.566723  -3.762422  44.927517  52.181873  -55.105965  25.182029  0.000000
0.069000  0.000000  0.000000  0.000000  -32.613883  3.884251  17.255563  64.695589  10.718476  -3.386403  45.214738  52.383556  -55.259537  25.484107  0.000000
0.092000  0.000000  0.000000  0.000000  -32.854774  3.969116  17.224579  64.902074  10.786138  -3.105764  45.492940  52.489112  -55.527648  25.709336  0.000000
0.115000  0.000000  0.000000  0.000000  -33.103420  4.011983  17.098034  65.009033  10.805016  -2.907219  45.763101  52.501696  -55.897822  25.865783  0.000000
0.138000  0.000000  0.000000  0.000000  -33.316333  4.024194  16.911884  65.041392  10.804366  -2.781720  46.019343  52.442424  -56.377280  25.955422  0.000000
0.161000  0.000000  0.000000  0.000000  -33.479198  4.019648  16.697171  65.015024  10.796775  -2.711874  46.276174  52.327275  -56.945641  25.984767  0.000000
0.184000  0.000000  0.000000  0.000000  -33.587222  4.001740  16.471373  64.945263  10.782440  -2.682227  46.540030  52.175841  -57.593755  25.974674  0.000000
0.207000  0.000000  0.000000  0.000000  -33.646128  3.978754  16.244116  64.850656  10.766113  -2.681541  46.820992  52.001673  -58.303070  25.937172  0.000000
0.230000  0.000000  0.000000  0.000000  -33.660549  3.954294  16.022010  64.740173  10.742552  -2.695670  47.123648  51.812769  -59.059261  25.883072  0.000000
0.253000  0.000000  0.000000  0.000000  -33.637807  3.930951  15.805640  64.625839  10.711874  -2.717549  47.450289  51.614721  -59.849365  25.818356  0.000000
0.276000  0.000000  0.000000  0.000000  -33.585253  3.911770  15.595982  64.512899  10.669572  -2.738584  47.801893  51.409078  -60.660232  25.749700  0.000000
0.299000  0.000000  0.000000  0.000000  -33.510234  3.896336  15.391917  64.407746  10.615533  -2.754416  48.177231  51.196464  -61.481425  25.680555  0.000000
0.322000  0.000000  0.000000  0.000000  -33.419048  3.886042  15.193514  64.313468  10.547261  -2.760643  48.574473  50.976240  -62.303187  25.614819  0.000000
0.345000  0.000000  0.000000  0.000000  -33.317043  3.879532  15.000356  64.233967  10.465241  -2.755672  48.991199  50.747672  -63.117493  25.554536  0.000000
0.368000  0.000000  0.000000  0.000000  -33.208590  3.876642  14.812511  64.171358  10.368681  -2.737515  49.424995  50.510032  -63.917117  25.502295  0.000000
0.391000  0.000000  0.000000  0.000000  -33.097174  3.876116  14.629988  64.128339  10.259010  -2.705889  49.873563  50.262666  -64.696125  25.459406  0.000000
0.414000  0.000000  0.000000  0.000000  -32.985424  3.877294  14.453424  64.106190  10.136319  -2.660042  50.334666  50.005209  -65.449278  25.427672  0.000000
0.437000  0.000000  0.000000  0.000000  -32.875825  3.878956  14.283289  64.107115  10.002132  -2.600347  50.806422  49.737758  -66.172607  25.407986  0.000000
0.460000  0.000000  0.000000  0.000000  -32.770083  3.880306  14.120302  64.131851  9.856933  -2.526569  51.287096  49.460569  -66.862460  25.401709  0.000000
0.483000  0.000000  0.000000  0.000000  -32.669857  3.880338  13.965016  64.181950  9.702152  -2.439346  51.775181  49.174285  -67.516524  25.409345  0.000000
0.506000  0.000000  0.000000  0.000000  -32.576244  3.878300  13.818073  64.257575  9.538216  -2.338774  52.269399  48.879597  -68.132518  25.431781  0.000000
0.529000  0.000000  0.000000  0.000000  -32.490217  3.873244  13.679986  64.359715  9.366100  -2.225861  52.768601  48.577492  -68.709494  25.469138  0.000000
0.552000  0.000000  0.000000  0.000000  -32.412239  3.864401  13.551142  64.488084  9.186026  -2.101216  53.271858  48.268936  -69.246336  25.521788  0.000000
0.575000  0.000000  0.000000  0.000000  -32.342621  3.850990  13.431789  64.643026  8.998997  -1.966412  53.777983  47.955148  -69.743262  25.589407  0.000000
0.598000  0.000000  0.000000  0.000000  -32.281985  3.832533  13.321861  64.823139  8.805825  -1.822081  54.285835  47.637279  -70.200170  25.671934  0.000000
0.621000  0.000000  0.000000  0.000000  -32.231019  3.808593  13.222063  65.027148  8.607322  -1.669806  54.794007  47.316653  -70.618082  25.768798  0.000000
0.644000  0.000000  0.000000  0.000000  -32.189868  3.778899  13.132545  65.252701  8.404342  -1.511227  55.300854  46.994929  -70.997886  25.879490  0.000000
0.667000  0.000000  0.000000  0.000000  -32.158912  3.743261  13.053631  65.497630  8.198134  -1.348476  55.804744  46.673896  -71.341251  26.003209  0.000000
0.690000  0.000000  0.000000  0.000000  -32.138473  3.701732  12.985189  65.758524  7.989809  -1.183276  56.303991  46.355724  -71.649544  26.139273  0.000000
0.713000  0.000000  0.000000  0.000000  -32.128872  3.654487  12.927004  66.032263  7.781218  -1.017856  56.796650  46.042872  -71.924933  26.286795  0.000000
0.736000  0.000000  0.000000  0.000000  -32.130058  3.602011  12.878247  66.314144  7.574355  -0.852937  57.280934  45.737281  -72.169141  26.444518  0.000000
0.759000  0.000000  0.000000  0.000000  -32.141636  3.545128  12.837610  66.600287  7.371812  -0.689087  57.755024  45.440040  -72.384454  26.610950  0.000000
0.782000  0.000000  0.000000  0.000000  -32.162901  3.485249  12.804410  66.887635  7.174555  -0.527233  58.217309  45.151870  -72.572927  26.784518  0.000000
0.805000  0.000000  0.000000  0.000000  -32.192479  3.423849  12.778323  67.174213  6.983363  -0.368649  58.666099  44.873055  -72.737119  26.963483  0.000000
0.828000  0.000000  0.000000  0.000000  -32.228838  3.362218  12.759495  67.457215  6.798464  -0.213803  59.100184  44.603633  -72.879021  27.145832  0.000000
0.851000  0.000000  0.000000  0.000000  -32.270450  3.301068  12.747683  67.734537  6.620465  -0.063603  59.518059  44.344208  -73.000963  27.329809  0.000000
0.874000  0.000000  0.000000  0.000000  -32.315861  3.241479  12.742684  68.004061  6.449715  0.081196  59.918601  44.095516  -73.104882  27.513598  0.000000
0.897000  0.000000  0.000000  0.000000  -32.363602  3.184183  12.744069  68.263793  6.286651  0.219993  60.300652  43.858154  -73.192689  27.695513  0.000000
0.920000  0.000000  0.000000  0.000000  -32.411920  3.130191  12.751340  68.511820  6.131674  0.352125  60.663178  43.632647  -73.266102  27.873646  0.000000
0.943000  0.000000  0.000000  0.000000  -32.459196  3.080310  12.763563  68.746222  5.985180  0.477386  61.005118  43.419102  -73.326753  28.046211  0.000000
0.966000  0.000000  0.000000  0.000000  -32.504793  3.034657  12.780340  68.965082  5.846689  0.595594  61.325776  43.217557  -73.375960  28.211680  0.000000
0.989000  0.000000  0.000000  0.000000  -32.547622  2.993693  12.802025  69.166924  5.715489  0.705830  61.624032  43.028690  -73.415033  28.368490  0.000000
1.012000  0.000000  0.000000  0.000000  -32.586330  2.958126  12.828591  69.350961  5.592073  0.806462  61.898538  42.853929  -73.445060  28.514911  0.000000
1.035000  0.000000  0.000000  0.000000  -32.620643  2.928064  12.858998  69.516376  5.477342  0.896749  62.148143  42.694330  -73.466635  28.649597  0.000000
1.058000  0.000000  0.000000  0.000000  -32.650585  2.903218  12.892137  69.662243  5.371802  0.976250  62.371834  42.550295  -73.480308  28.771275  0.000000
1.081000  0.000000  0.000000  0.000000  -32.676057  2.883475  12.927523  69.787608  5.275201  1.044639  62.568600  42.421901  -73.486372  28.878680  0.000000
1.104000  0.000000  0.000000  0.000000  -32.696805  2.868746  12.965259  69.892038  5.187347  1.100988  62.737445  42.309613  -73.484941  28.970555  0.000000
1.127000  0.000000  0.000000  0.000000  -32.712679  2.858924  13.005153  69.975360  5.108395  1.144522  62.877277  42.214228  -73.475791  29.045768  0.000000
1.150000  0.000000  0.000000  0.000000  -32.724036  2.853629  13.046547  70.037635  5.038950  1.174702  62.987244  42.136426  -73.458435  29.103436  0.000000
1.173000  0.000000  0.000000  0.000000  -32.731236  2.852575  13.088912  70.078731  4.979141  1.191463  63.066573  42.076494  -73.432088  29.142789  0.000000
1.196000  0.000000  0.000000  0.000000  -32.734326  2.855631  13.131892  70.098684  4.929211  1.194655  63.114600  42.034560  -73.395843  29.163081  0.000000
1.219000  0.000000  0.000000  0.000000  -32.733300  2.862818  13.175319  70.097522  4.889118  1.184400  63.130731  42.010677  -73.348476  29.163663  0.000000
1.242000  0.000000  0.000000  0.000000  -32.728094  2.874156  13.218995  70.075426  4.859079  1.160879  63.114565  42.004809  -73.288554  29.144056  0.000000
1.265000  0.000000  0.000000  0.000000  -32.718421  2.889985  13.262804  70.032631  4.839181  1.124518  63.065738  42.016797  -73.214431  29.103795  0.000000
1.288000  0.000000  0.000000  0.000000  -32.703924  2.910539  13.306343  69.969325  4.829800  1.076047  62.984048  42.046102  -73.124294  29.042565  0.000000
1.311000  0.000000  0.000000  0.000000  -32.684846  2.936014  13.349871  69.885774  4.830415  1.016471  62.869609  42.091986  -73.016074  28.960359  0.000000
1.334000  0.000000  0.000000  0.000000  -32.661317  2.966461  13.394178  69.782710  4.840314  0.946192  62.722409  42.154341  -72.887702  28.857328  0.000000
1.357000  0.000000  0.000000  0.000000  -32.632932  3.001899  13.440041  69.660998  4.859512  0.865655  62.542433  42.232953  -72.736936  28.733385  0.000000
1.380000  0.000000  0.000000  0.000000  -32.599319  3.043156  13.486970  69.521406  4.889112  0.776296  62.330031  42.326883  -72.561202  28.588585  0.000000
1.403000  0.000000  0.000000  0.000000  -32.562374  3.089805  13.534551  69.365748  4.928844  0.679132  62.085382  42.435730  -72.358330  28.424047  0.000000
